<svg xmlns="http://www.w3.org/2000/svg" xmlns:xlink="http://www.w3.org/1999/xlink" viewBox="0 0 369 142"><defs><style>.cls-1{opacity:0.25;}.cls-2,.cls-3,.cls-4,.cls-5{fill:none;stroke-miterlimit:10;}.cls-2{stroke:url(#linear-gradient);}.cls-3{stroke:url(#linear-gradient-2);}.cls-4{stroke:url(#linear-gradient-3);}.cls-5{stroke:url(#linear-gradient-4);}.cls-6{opacity:0.7;}.cls-7{fill:url(#linear-gradient-5);}.cls-8{fill:url(#linear-gradient-6);}.cls-9{fill:url(#linear-gradient-7);}.cls-10{font-size:12px;fill:#999;font-family:Roboto-Light, Roboto;font-weight:300;}.cls-11{letter-spacing:-0.01em;}.cls-12{letter-spacing:-0.01em;}</style><linearGradient id="linear-gradient" x1="140.19" y1="59.84" x2="210.67" y2="59.84" gradientUnits="userSpaceOnUse"><stop offset="0" stop-color="#d30d95"/><stop offset="0.49" stop-color="#7a5dcf"/><stop offset="1" stop-color="#628bd1"/></linearGradient><linearGradient id="linear-gradient-2" x1="137.63" y1="63.34" x2="208.1" y2="63.34" xlink:href="#linear-gradient"/><linearGradient id="linear-gradient-3" x1="142.29" y1="66.61" x2="212.76" y2="66.61" xlink:href="#linear-gradient"/><linearGradient id="linear-gradient-4" x1="144.62" y1="64.74" x2="215.1" y2="64.74" xlink:href="#linear-gradient"/><linearGradient id="linear-gradient-5" x1="292.47" y1="-4.33" x2="210.05" y2="78.09" xlink:href="#linear-gradient"/><linearGradient id="linear-gradient-6" x1="317.69" y1="20.89" x2="235.27" y2="103.31" xlink:href="#linear-gradient"/><linearGradient id="linear-gradient-7" x1="340.07" y1="43.27" x2="257.65" y2="125.69" xlink:href="#linear-gradient"/></defs><g id="Layer_3" data-name="Layer 3"><g class="cls-1"><ellipse class="cls-2" cx="175.43" cy="59.84" rx="34.74" ry="36.37"/><ellipse class="cls-3" cx="172.86" cy="63.34" rx="34.74" ry="36.37"/><ellipse class="cls-4" cx="177.53" cy="66.61" rx="34.74" ry="36.37"/><ellipse class="cls-5" cx="179.86" cy="64.74" rx="34.74" ry="36.37"/></g><path d="M28.64,53.33a16.64,16.64,0,0,1,6.69-6.91A19.88,19.88,0,0,1,45.2,44,18.33,18.33,0,0,1,56.54,47.5a16.87,16.87,0,0,1,6.23,8.89V44.51h1.36V83.39H62.77V71.51a16.87,16.87,0,0,1-6.23,8.89A18.33,18.33,0,0,1,45.2,83.89a19.88,19.88,0,0,1-9.87-2.41,16.64,16.64,0,0,1-6.69-6.91A22.37,22.37,0,0,1,26.26,64,22.37,22.37,0,0,1,28.64,53.33Zm31.86.86a16.48,16.48,0,0,0-6.27-6.55,17.51,17.51,0,0,0-9-2.34A18.47,18.47,0,0,0,36,47.53,15.2,15.2,0,0,0,29.86,54,21.59,21.59,0,0,0,27.7,64a21.59,21.59,0,0,0,2.16,10A15.2,15.2,0,0,0,36,80.37,18.47,18.47,0,0,0,45.2,82.6a17.51,17.51,0,0,0,9-2.34,16.48,16.48,0,0,0,6.27-6.55A20.3,20.3,0,0,0,62.77,64,20.3,20.3,0,0,0,60.5,54.19Z"/><path d="M78.57,81.3A10.38,10.38,0,0,1,74,73.45h1.44a9,9,0,0,0,3.85,6.74q3.42,2.4,9.68,2.41a12.07,12.07,0,0,0,5.58-1.23,9.06,9.06,0,0,0,3.71-3.27,8.12,8.12,0,0,0,1.3-4.43,6,6,0,0,0-1.48-4.21A9.72,9.72,0,0,0,94.41,67a57.7,57.7,0,0,0-6-1.87,53,53,0,0,1-6.88-2.16,11.18,11.18,0,0,1-4.46-3.31,9,9,0,0,1-1.84-5.9,8.17,8.17,0,0,1,1.59-4.83,11,11,0,0,1,4.35-3.56A14.2,14.2,0,0,1,87.39,44q5.91,0,9.5,3a10.84,10.84,0,0,1,3.89,8.21H99.34a9.85,9.85,0,0,0-3.27-7.1c-2-1.84-4.94-2.77-8.68-2.77a12.78,12.78,0,0,0-5.47,1.15,9.71,9.71,0,0,0-3.85,3.1,7,7,0,0,0-1.41,4.18,7.59,7.59,0,0,0,1.66,5.11,10.1,10.1,0,0,0,4.07,2.88,65.27,65.27,0,0,0,6.44,2c2.74.77,4.88,1.47,6.44,2.09a10.25,10.25,0,0,1,4,2.85,7.38,7.38,0,0,1,1.66,5,9.08,9.08,0,0,1-1.59,5.22A10.73,10.73,0,0,1,95,82.56a13.74,13.74,0,0,1-6.12,1.33Q82.49,83.89,78.57,81.3Z"/><path d="M114.25,46V73.17a14.28,14.28,0,0,0,.79,5.39,4.72,4.72,0,0,0,2.52,2.63,12.23,12.23,0,0,0,4.82.76h4.11v1.44h-4.25c-3.36,0-5.78-.77-7.24-2.31s-2.19-4.17-2.19-7.91V46h-6.34V44.51h6.34V34.57h1.44v9.94h12.24V46Z"/><path d="M152.26,43.65v1.58h-.65a15.74,15.74,0,0,0-10.4,3.56q-4.29,3.57-4.28,11.49V83.39h-1.44V44.51h1.44v9.43Q139.23,43.65,152.26,43.65Z"/><path d="M167.31,81.48a17.27,17.27,0,0,1-6.8-6.91A21.6,21.6,0,0,1,158,64a21.6,21.6,0,0,1,2.49-10.62,17.27,17.27,0,0,1,6.8-6.91,20.81,20.81,0,0,1,19.44,0,17.13,17.13,0,0,1,6.77,6.91A21.92,21.92,0,0,1,196,64a21.92,21.92,0,0,1-2.44,10.62,17.13,17.13,0,0,1-6.77,6.91,20.81,20.81,0,0,1-19.44,0Zm18.36-.94a15.82,15.82,0,0,0,6.41-6.22A20.25,20.25,0,0,0,194.52,64a20.25,20.25,0,0,0-2.44-10.37,15.91,15.91,0,0,0-6.41-6.23A18.59,18.59,0,0,0,177,45.3a18.85,18.85,0,0,0-8.68,2.05,15.71,15.71,0,0,0-6.44,6.27A20.28,20.28,0,0,0,159.46,64a20.28,20.28,0,0,0,2.45,10.33,15.62,15.62,0,0,0,6.44,6.26A18.73,18.73,0,0,0,177,82.6,18.48,18.48,0,0,0,185.67,80.54Z"/><g class="cls-6"><path class="cls-7" d="M244.78,66.27H216.92A8.35,8.35,0,0,0,219.33,72a7.37,7.37,0,0,0,5.22,2A6.48,6.48,0,0,0,231,70.09h13.1a18,18,0,0,1-10.22,12.09A21,21,0,0,1,225,84a21.44,21.44,0,0,1-10.51-2.52,17.83,17.83,0,0,1-7.2-7.2,22.18,22.18,0,0,1-2.59-10.94,22.5,22.5,0,0,1,2.55-10.94,17.75,17.75,0,0,1,7.17-7.2,23.36,23.36,0,0,1,20.95-.08,17.6,17.6,0,0,1,7.09,7A21.12,21.12,0,0,1,245,62.67,30.2,30.2,0,0,1,244.78,66.27ZM232.4,59.43a6.34,6.34,0,0,0-2.16-5,7.94,7.94,0,0,0-5.4-1.87,7.78,7.78,0,0,0-5.22,1.8A8,8,0,0,0,217,59.43Z"/><path class="cls-8" d="M251.37,52.38a17.44,17.44,0,0,1,6.37-7.2,16.64,16.64,0,0,1,9-2.52A15.89,15.89,0,0,1,274,44.31a13.23,13.23,0,0,1,5.15,4.47V30.13h12.31V83.41H279.13V77.65a12.65,12.65,0,0,1-4.94,4.61A15.46,15.46,0,0,1,266.74,84a16.5,16.5,0,0,1-9-2.55,17.64,17.64,0,0,1-6.37-7.27A24.26,24.26,0,0,1,249,63.25,24,24,0,0,1,251.37,52.38Zm25.2,3.67a8.29,8.29,0,0,0-6.23-2.67A8.38,8.38,0,0,0,264.11,56a10,10,0,0,0-2.55,7.24,10.22,10.22,0,0,0,2.55,7.31,8.57,8.57,0,0,0,12.46,0,10.07,10.07,0,0,0,2.56-7.27A10.09,10.09,0,0,0,276.57,56.05Z"/><path class="cls-9" d="M340,43.23V83.41H327.72V77.94a13.52,13.52,0,0,1-5.07,4.28,15.5,15.5,0,0,1-7.09,1.62,15.85,15.85,0,0,1-8.14-2A13.83,13.83,0,0,1,302,75.85,20.16,20.16,0,0,1,300,66.7V43.23h12.24V65.05a8.8,8.8,0,0,0,2.09,6.26A7.32,7.32,0,0,0,320,73.54a7.42,7.42,0,0,0,5.69-2.23,8.8,8.8,0,0,0,2.08-6.26V43.23Z"/></g><text class="cls-10" transform="translate(73.07 125.9)">a <tspan class="cls-11" x="9.35" y="0">p</tspan><tspan x="15.93" y="0">ython package for ast</tspan><tspan class="cls-12" x="129.65" y="0">r</tspan><tspan x="133.57" y="0">onomy educa</tspan><tspan class="cls-12" x="204.93" y="0">t</tspan><tspan x="208.66" y="0">ors</tspan></text></g></svg>