<svg xmlns="http://www.w3.org/2000/svg" xmlns:xlink="http://www.w3.org/1999/xlink" viewBox="0 0 369 108"><defs><style>.cls-1{opacity:0.25;}.cls-2,.cls-3,.cls-4,.cls-5{fill:none;stroke-miterlimit:10;}.cls-2{stroke:url(#linear-gradient);}.cls-3{stroke:url(#linear-gradient-2);}.cls-4{stroke:url(#linear-gradient-3);}.cls-5{stroke:url(#linear-gradient-4);}.cls-6{opacity:0.7;}.cls-7{fill:url(#linear-gradient-5);}.cls-8{fill:url(#linear-gradient-6);}.cls-9{fill:url(#linear-gradient-7);}</style><linearGradient id="linear-gradient" x1="139.19" y1="51.84" x2="209.67" y2="51.84" gradientUnits="userSpaceOnUse"><stop offset="0" stop-color="#d30d95"/><stop offset="0.49" stop-color="#7a5dcf"/><stop offset="1" stop-color="#628bd1"/></linearGradient><linearGradient id="linear-gradient-2" x1="136.63" y1="55.34" x2="207.1" y2="55.34" xlink:href="#linear-gradient"/><linearGradient id="linear-gradient-3" x1="141.29" y1="58.6" x2="211.76" y2="58.6" xlink:href="#linear-gradient"/><linearGradient id="linear-gradient-4" x1="143.62" y1="56.74" x2="214.1" y2="56.74" xlink:href="#linear-gradient"/><linearGradient id="linear-gradient-5" x1="291.47" y1="-12.33" x2="209.05" y2="70.09" xlink:href="#linear-gradient"/><linearGradient id="linear-gradient-6" x1="316.69" y1="12.89" x2="234.27" y2="95.31" xlink:href="#linear-gradient"/><linearGradient id="linear-gradient-7" x1="339.07" y1="35.27" x2="256.65" y2="117.69" xlink:href="#linear-gradient"/></defs><g id="Layer_2" data-name="Layer 2"><g class="cls-1"><ellipse class="cls-2" cx="174.43" cy="51.84" rx="34.74" ry="36.37"/><ellipse class="cls-3" cx="171.86" cy="55.34" rx="34.74" ry="36.37"/><ellipse class="cls-4" cx="176.53" cy="58.6" rx="34.74" ry="36.37"/><ellipse class="cls-5" cx="178.86" cy="56.74" rx="34.74" ry="36.37"/></g><path d="M27.64,45.33a16.6,16.6,0,0,1,6.7-6.91A19.81,19.81,0,0,1,44.2,36,18.33,18.33,0,0,1,55.54,39.5a16.87,16.87,0,0,1,6.23,8.89V36.51h1.36V75.39H61.77V63.51a16.87,16.87,0,0,1-6.23,8.89A18.33,18.33,0,0,1,44.2,75.89a19.81,19.81,0,0,1-9.86-2.41,16.6,16.6,0,0,1-6.7-6.91A22.37,22.37,0,0,1,25.26,56,22.37,22.37,0,0,1,27.64,45.33Zm31.86.86a16.48,16.48,0,0,0-6.27-6.55,17.51,17.51,0,0,0-9-2.34A18.47,18.47,0,0,0,35,39.53,15.2,15.2,0,0,0,28.86,46,21.56,21.56,0,0,0,26.7,56a21.59,21.59,0,0,0,2.16,10A15.2,15.2,0,0,0,35,72.37,18.47,18.47,0,0,0,44.2,74.6a17.51,17.51,0,0,0,9-2.34A16.44,16.44,0,0,0,59.5,65.7,20.23,20.23,0,0,0,61.77,56,20.3,20.3,0,0,0,59.5,46.19Z"/><path d="M77.57,73.3A10.38,10.38,0,0,1,73,65.45h1.44a8.92,8.92,0,0,0,3.85,6.73Q81.71,74.6,88,74.6a12.07,12.07,0,0,0,5.58-1.23,9.06,9.06,0,0,0,3.71-3.27,8.12,8.12,0,0,0,1.3-4.43,6,6,0,0,0-1.48-4.21A9.72,9.72,0,0,0,93.41,59a57.7,57.7,0,0,0-6-1.87,53,53,0,0,1-6.88-2.16,11.18,11.18,0,0,1-4.46-3.31,9,9,0,0,1-1.84-5.91,8.16,8.16,0,0,1,1.59-4.82,11,11,0,0,1,4.35-3.56A14.2,14.2,0,0,1,86.39,36q5.91,0,9.5,3a10.84,10.84,0,0,1,3.89,8.2H98.34a9.82,9.82,0,0,0-3.27-7.09c-2-1.84-4.94-2.77-8.68-2.77a12.78,12.78,0,0,0-5.47,1.15,9.71,9.71,0,0,0-3.85,3.1,7,7,0,0,0-1.41,4.17,7.6,7.6,0,0,0,1.66,5.12,10.1,10.1,0,0,0,4.07,2.88,65.27,65.27,0,0,0,6.44,2c2.74.77,4.88,1.47,6.44,2.09a10.33,10.33,0,0,1,4,2.84,7.42,7.42,0,0,1,1.66,5,9.08,9.08,0,0,1-1.59,5.22A10.73,10.73,0,0,1,94,74.56a13.74,13.74,0,0,1-6.12,1.33Q81.49,75.89,77.57,73.3Z"/><path d="M113.25,38V65.16a14.3,14.3,0,0,0,.79,5.4,4.75,4.75,0,0,0,2.52,2.63,12.23,12.23,0,0,0,4.82.76h4.11v1.44h-4.25c-3.36,0-5.78-.77-7.24-2.31s-2.19-4.17-2.19-7.92V38h-6.34V36.51h6.34V26.57h1.44v9.94h12.24V38Z"/><path d="M151.26,35.64v1.59h-.65a15.74,15.74,0,0,0-10.4,3.56q-4.29,3.57-4.28,11.49V75.39h-1.44V36.51h1.44v9.43Q138.23,35.65,151.26,35.64Z"/><path d="M166.31,73.48a17.27,17.27,0,0,1-6.8-6.91A21.6,21.6,0,0,1,157,56a21.6,21.6,0,0,1,2.49-10.62,17.27,17.27,0,0,1,6.8-6.91,20.81,20.81,0,0,1,19.44,0,17.13,17.13,0,0,1,6.77,6.91A21.92,21.92,0,0,1,195,56a21.92,21.92,0,0,1-2.44,10.62,17.13,17.13,0,0,1-6.77,6.91,20.81,20.81,0,0,1-19.44,0Zm18.36-.94a15.82,15.82,0,0,0,6.41-6.22A20.25,20.25,0,0,0,193.52,56a20.25,20.25,0,0,0-2.44-10.37,15.91,15.91,0,0,0-6.41-6.23A18.59,18.59,0,0,0,176,37.3a18.85,18.85,0,0,0-8.68,2.05,15.71,15.71,0,0,0-6.44,6.27A20.28,20.28,0,0,0,158.46,56a20.28,20.28,0,0,0,2.45,10.33,15.62,15.62,0,0,0,6.44,6.26A18.73,18.73,0,0,0,176,74.6,18.48,18.48,0,0,0,184.67,72.54Z"/><g class="cls-6"><path class="cls-7" d="M243.78,58.27H215.92A8.35,8.35,0,0,0,218.33,64a7.38,7.38,0,0,0,5.22,2A6.48,6.48,0,0,0,230,62.09h13.1a18,18,0,0,1-10.22,12.09A21.16,21.16,0,0,1,224,76a21.44,21.44,0,0,1-10.51-2.52,18,18,0,0,1-7.2-7.2,22.18,22.18,0,0,1-2.59-10.94,22.5,22.5,0,0,1,2.55-10.94,17.75,17.75,0,0,1,7.17-7.2,23.36,23.36,0,0,1,20.95-.08,17.6,17.6,0,0,1,7.09,7A21.12,21.12,0,0,1,244,54.67,30.2,30.2,0,0,1,243.78,58.27ZM231.4,51.43a6.34,6.34,0,0,0-2.16-5,7.94,7.94,0,0,0-5.4-1.87,7.78,7.78,0,0,0-5.22,1.8A8,8,0,0,0,216,51.43Z"/><path class="cls-8" d="M250.37,44.38a17.44,17.44,0,0,1,6.37-7.2,16.64,16.64,0,0,1,9-2.52A15.89,15.89,0,0,1,273,36.31a13.23,13.23,0,0,1,5.15,4.47V22.13h12.31V75.41H278.13V69.65a12.65,12.65,0,0,1-4.94,4.61A15.46,15.46,0,0,1,265.74,76a16.5,16.5,0,0,1-9-2.55,17.64,17.64,0,0,1-6.37-7.27A24.26,24.26,0,0,1,248,55.25,24,24,0,0,1,250.37,44.38Zm25.2,3.67a8.29,8.29,0,0,0-6.23-2.67A8.38,8.38,0,0,0,263.11,48a10,10,0,0,0-2.55,7.24,10.22,10.22,0,0,0,2.55,7.31,8.57,8.57,0,0,0,12.46,0,10.07,10.07,0,0,0,2.56-7.27A10.07,10.07,0,0,0,275.57,48.05Z"/><path class="cls-9" d="M339,35.23V75.41H326.72V69.94a13.52,13.52,0,0,1-5.07,4.28,15.5,15.5,0,0,1-7.09,1.62,15.85,15.85,0,0,1-8.14-2A13.83,13.83,0,0,1,301,67.85,20.16,20.16,0,0,1,299,58.7V35.23h12.24V57.05a8.8,8.8,0,0,0,2.09,6.26A7.32,7.32,0,0,0,319,65.54a7.42,7.42,0,0,0,5.69-2.23,8.8,8.8,0,0,0,2.08-6.26V35.23Z"/></g></g></svg>