<svg xmlns="http://www.w3.org/2000/svg" xmlns:xlink="http://www.w3.org/1999/xlink" viewBox="0 0 369 142"><defs><style>.cls-1{opacity:0.25;}.cls-2,.cls-3,.cls-4,.cls-5{fill:none;stroke-miterlimit:10;}.cls-2{stroke:url(#linear-gradient);}.cls-3{stroke:url(#linear-gradient-2);}.cls-4{stroke:url(#linear-gradient-3);}.cls-5{stroke:url(#linear-gradient-4);}.cls-6{opacity:0.7;}.cls-7{fill:url(#linear-gradient-5);}.cls-8{fill:url(#linear-gradient-6);}.cls-9{fill:url(#linear-gradient-7);}.cls-10{fill:#999;}</style><linearGradient id="linear-gradient" x1="140.19" y1="59.84" x2="210.67" y2="59.84" gradientUnits="userSpaceOnUse"><stop offset="0" stop-color="#d30d95"/><stop offset="0.49" stop-color="#7a5dcf"/><stop offset="1" stop-color="#628bd1"/></linearGradient><linearGradient id="linear-gradient-2" x1="137.63" y1="63.34" x2="208.1" y2="63.34" xlink:href="#linear-gradient"/><linearGradient id="linear-gradient-3" x1="142.29" y1="66.61" x2="212.76" y2="66.61" xlink:href="#linear-gradient"/><linearGradient id="linear-gradient-4" x1="144.62" y1="64.74" x2="215.1" y2="64.74" xlink:href="#linear-gradient"/><linearGradient id="linear-gradient-5" x1="292.47" y1="-4.33" x2="210.05" y2="78.09" xlink:href="#linear-gradient"/><linearGradient id="linear-gradient-6" x1="317.69" y1="20.89" x2="235.27" y2="103.31" xlink:href="#linear-gradient"/><linearGradient id="linear-gradient-7" x1="340.07" y1="43.27" x2="257.65" y2="125.69" xlink:href="#linear-gradient"/></defs><g id="Layer_3" data-name="Layer 3"><g class="cls-1"><ellipse class="cls-2" cx="175.43" cy="59.84" rx="34.74" ry="36.37"/><ellipse class="cls-3" cx="172.86" cy="63.34" rx="34.74" ry="36.37"/><ellipse class="cls-4" cx="177.53" cy="66.61" rx="34.74" ry="36.37"/><ellipse class="cls-5" cx="179.86" cy="64.74" rx="34.74" ry="36.37"/></g><path d="M28.64,53.33a16.64,16.64,0,0,1,6.69-6.91A19.88,19.88,0,0,1,45.2,44,18.33,18.33,0,0,1,56.54,47.5a16.87,16.87,0,0,1,6.23,8.89V44.51h1.36V83.39H62.77V71.51a16.87,16.87,0,0,1-6.23,8.89A18.33,18.33,0,0,1,45.2,83.89a19.88,19.88,0,0,1-9.87-2.41,16.64,16.64,0,0,1-6.69-6.91A22.37,22.37,0,0,1,26.26,64,22.37,22.37,0,0,1,28.64,53.33Zm31.86.86a16.48,16.48,0,0,0-6.27-6.55,17.51,17.51,0,0,0-9-2.34A18.47,18.47,0,0,0,36,47.53,15.2,15.2,0,0,0,29.86,54,21.59,21.59,0,0,0,27.7,64a21.59,21.59,0,0,0,2.16,10A15.2,15.2,0,0,0,36,80.37,18.47,18.47,0,0,0,45.2,82.6a17.51,17.51,0,0,0,9-2.34,16.48,16.48,0,0,0,6.27-6.55A20.3,20.3,0,0,0,62.77,64,20.3,20.3,0,0,0,60.5,54.19Z"/><path d="M78.57,81.3A10.38,10.38,0,0,1,74,73.45h1.44a9,9,0,0,0,3.85,6.74q3.42,2.4,9.68,2.41a12.07,12.07,0,0,0,5.58-1.23,9.06,9.06,0,0,0,3.71-3.27,8.12,8.12,0,0,0,1.3-4.43,6,6,0,0,0-1.48-4.21A9.72,9.72,0,0,0,94.41,67a57.7,57.7,0,0,0-6-1.87,53,53,0,0,1-6.88-2.16,11.18,11.18,0,0,1-4.46-3.31,9,9,0,0,1-1.84-5.9,8.17,8.17,0,0,1,1.59-4.83,11,11,0,0,1,4.35-3.56A14.2,14.2,0,0,1,87.39,44q5.91,0,9.5,3a10.84,10.84,0,0,1,3.89,8.21H99.34a9.85,9.85,0,0,0-3.27-7.1c-2-1.84-4.94-2.77-8.68-2.77a12.78,12.78,0,0,0-5.47,1.15,9.71,9.71,0,0,0-3.85,3.1,7,7,0,0,0-1.41,4.18,7.59,7.59,0,0,0,1.66,5.11,10.1,10.1,0,0,0,4.07,2.88,65.27,65.27,0,0,0,6.44,2c2.74.77,4.88,1.47,6.44,2.09a10.25,10.25,0,0,1,4,2.85,7.38,7.38,0,0,1,1.66,5,9.08,9.08,0,0,1-1.59,5.22A10.73,10.73,0,0,1,95,82.56a13.74,13.74,0,0,1-6.12,1.33Q82.49,83.89,78.57,81.3Z"/><path d="M114.25,46V73.17a14.28,14.28,0,0,0,.79,5.39,4.72,4.72,0,0,0,2.52,2.63,12.23,12.23,0,0,0,4.82.76h4.11v1.44h-4.25c-3.36,0-5.78-.77-7.24-2.31s-2.19-4.17-2.19-7.91V46h-6.34V44.51h6.34V34.57h1.44v9.94h12.24V46Z"/><path d="M152.26,43.65v1.58h-.65a15.74,15.74,0,0,0-10.4,3.56q-4.29,3.57-4.28,11.49V83.39h-1.44V44.51h1.44v9.43Q139.23,43.65,152.26,43.65Z"/><path d="M167.31,81.48a17.27,17.27,0,0,1-6.8-6.91A21.6,21.6,0,0,1,158,64a21.6,21.6,0,0,1,2.49-10.62,17.27,17.27,0,0,1,6.8-6.91,20.81,20.81,0,0,1,19.44,0,17.13,17.13,0,0,1,6.77,6.91A21.92,21.92,0,0,1,196,64a21.92,21.92,0,0,1-2.44,10.62,17.13,17.13,0,0,1-6.77,6.91,20.81,20.81,0,0,1-19.44,0Zm18.36-.94a15.82,15.82,0,0,0,6.41-6.22A20.25,20.25,0,0,0,194.52,64a20.25,20.25,0,0,0-2.44-10.37,15.91,15.91,0,0,0-6.41-6.23A18.59,18.59,0,0,0,177,45.3a18.85,18.85,0,0,0-8.68,2.05,15.71,15.71,0,0,0-6.44,6.27A20.28,20.28,0,0,0,159.46,64a20.28,20.28,0,0,0,2.45,10.33,15.62,15.62,0,0,0,6.44,6.26A18.73,18.73,0,0,0,177,82.6,18.48,18.48,0,0,0,185.67,80.54Z"/><g class="cls-6"><path class="cls-7" d="M244.78,66.27H216.92A8.35,8.35,0,0,0,219.33,72a7.37,7.37,0,0,0,5.22,2A6.48,6.48,0,0,0,231,70.09h13.1a18,18,0,0,1-10.22,12.09A21,21,0,0,1,225,84a21.44,21.44,0,0,1-10.51-2.52,17.83,17.83,0,0,1-7.2-7.2,22.18,22.18,0,0,1-2.59-10.94,22.5,22.5,0,0,1,2.55-10.94,17.75,17.75,0,0,1,7.17-7.2,23.36,23.36,0,0,1,20.95-.08,17.6,17.6,0,0,1,7.09,7A21.12,21.12,0,0,1,245,62.67,30.2,30.2,0,0,1,244.78,66.27ZM232.4,59.43a6.34,6.34,0,0,0-2.16-5,7.94,7.94,0,0,0-5.4-1.87,7.78,7.78,0,0,0-5.22,1.8A8,8,0,0,0,217,59.43Z"/><path class="cls-8" d="M251.37,52.38a17.44,17.44,0,0,1,6.37-7.2,16.64,16.64,0,0,1,9-2.52A15.89,15.89,0,0,1,274,44.31a13.23,13.23,0,0,1,5.15,4.47V30.13h12.31V83.41H279.13V77.65a12.65,12.65,0,0,1-4.94,4.61A15.46,15.46,0,0,1,266.74,84a16.5,16.5,0,0,1-9-2.55,17.64,17.64,0,0,1-6.37-7.27A24.26,24.26,0,0,1,249,63.25,24,24,0,0,1,251.37,52.38Zm25.2,3.67a8.29,8.29,0,0,0-6.23-2.67A8.38,8.38,0,0,0,264.11,56a10,10,0,0,0-2.55,7.24,10.22,10.22,0,0,0,2.55,7.31,8.57,8.57,0,0,0,12.46,0,10.07,10.07,0,0,0,2.56-7.27A10.09,10.09,0,0,0,276.57,56.05Z"/><path class="cls-9" d="M340,43.23V83.41H327.72V77.94a13.52,13.52,0,0,1-5.07,4.28,15.5,15.5,0,0,1-7.09,1.62,15.85,15.85,0,0,1-8.14-2A13.83,13.83,0,0,1,302,75.85,20.16,20.16,0,0,1,300,66.7V43.23h12.24V65.05a8.8,8.8,0,0,0,2.09,6.26A7.32,7.32,0,0,0,320,73.54a7.42,7.42,0,0,0,5.69-2.23,8.8,8.8,0,0,0,2.08-6.26V43.23Z"/></g><path class="cls-10" d="M78,125.9a3.35,3.35,0,0,1-.13-.88,2.54,2.54,0,0,1-.94.74,3,3,0,0,1-1.21.26,2.11,2.11,0,0,1-1.48-.51,1.66,1.66,0,0,1-.57-1.29,1.69,1.69,0,0,1,.77-1.46,3.69,3.69,0,0,1,2.15-.54h1.27v-.72a1.38,1.38,0,0,0-.42-1.07,1.74,1.74,0,0,0-1.22-.39,1.9,1.9,0,0,0-1.21.37,1.11,1.11,0,0,0-.48.9h-.71a1.63,1.63,0,0,1,.71-1.31,2.67,2.67,0,0,1,1.72-.55,2.45,2.45,0,0,1,1.68.53,1.88,1.88,0,0,1,.63,1.48v3a3.66,3.66,0,0,0,.19,1.37v.07Zm-2.2-.5a2.3,2.3,0,0,0,1.25-.34,2,2,0,0,0,.81-.91v-1.39H76.6a3,3,0,0,0-1.64.38,1.18,1.18,0,0,0-.2,1.91A1.51,1.51,0,0,0,75.79,125.4Z"/><path class="cls-10" d="M88.43,122.8a3.86,3.86,0,0,1-.65,2.35A2.1,2.1,0,0,1,86,126a2.36,2.36,0,0,1-2-.91v3.23h-.7v-8.78H84l0,.9a2.24,2.24,0,0,1,2-1,2.08,2.08,0,0,1,1.78.86,3.84,3.84,0,0,1,.65,2.39Zm-.7-.13a3.28,3.28,0,0,0-.5-1.91,1.6,1.6,0,0,0-1.39-.71,1.93,1.93,0,0,0-1.11.32,1.9,1.9,0,0,0-.7.9v3a1.78,1.78,0,0,0,.72.83,2.07,2.07,0,0,0,1.1.29,1.6,1.6,0,0,0,1.38-.71A3.54,3.54,0,0,0,87.73,122.67Z"/><path class="cls-10" d="M91.93,124.89l1.85-5.33h.76L91.83,127l-.14.33a1.7,1.7,0,0,1-1.61,1.15,1.77,1.77,0,0,1-.54-.08v-.58l.37,0a1.29,1.29,0,0,0,.83-.26,2,2,0,0,0,.54-.87l.31-.86-2.39-6.29H90Z"/><path class="cls-10" d="M96.71,117.94v1.62H98v.58H96.71v4.23a1.28,1.28,0,0,0,.19.78.75.75,0,0,0,.64.26,4.54,4.54,0,0,0,.57-.06l0,.57a2.15,2.15,0,0,1-.75.1,1.22,1.22,0,0,1-1-.42,2,2,0,0,1-.33-1.23v-4.23H94.84v-.58H96v-1.62Z"/><path class="cls-10" d="M100.17,120.63a2.47,2.47,0,0,1,.89-.87,2.29,2.29,0,0,1,1.18-.31,1.89,1.89,0,0,1,1.51.57,2.58,2.58,0,0,1,.51,1.72v4.16h-.7v-4.16a1.91,1.91,0,0,0-.36-1.27,1.4,1.4,0,0,0-1.13-.42,1.76,1.76,0,0,0-1.15.41,2.36,2.36,0,0,0-.75,1.1v4.34h-.69v-9h.69Z"/><path class="cls-10" d="M105.68,122.64A3.7,3.7,0,0,1,106,121a2.64,2.64,0,0,1,2.47-1.54,2.61,2.61,0,0,1,2,.88,3.45,3.45,0,0,1,.79,2.36v.14a3.71,3.71,0,0,1-.36,1.66,2.57,2.57,0,0,1-1,1.13,2.7,2.7,0,0,1-1.47.4,2.63,2.63,0,0,1-2.05-.89,3.42,3.42,0,0,1-.78-2.35Zm.7.19a2.91,2.91,0,0,0,.59,1.87,2,2,0,0,0,3.08,0,3,3,0,0,0,.59-1.93v-.13a3.19,3.19,0,0,0-.27-1.33,2.16,2.16,0,0,0-.76-.94,2,2,0,0,0-2.64.41,3,3,0,0,0-.59,1.92Z"/><path class="cls-10" d="M113.45,119.56l0,1.09a2.58,2.58,0,0,1,.9-.9,2.32,2.32,0,0,1,1.17-.3,1.91,1.91,0,0,1,1.52.57,2.58,2.58,0,0,1,.5,1.72v4.16h-.69v-4.16a2,2,0,0,0-.36-1.27,1.42,1.42,0,0,0-1.14-.42,1.8,1.8,0,0,0-1.15.41,2.41,2.41,0,0,0-.74,1.1v4.34h-.7v-6.34Z"/><path class="cls-10" d="M127.39,122.8a3.79,3.79,0,0,1-.66,2.35A2.07,2.07,0,0,1,125,126a2.39,2.39,0,0,1-2-.91v3.23h-.69v-8.78h.65l0,.9a2.24,2.24,0,0,1,2-1,2.08,2.08,0,0,1,1.78.86,3.9,3.9,0,0,1,.65,2.39Zm-.7-.13a3.28,3.28,0,0,0-.5-1.91,1.61,1.61,0,0,0-1.39-.71,1.93,1.93,0,0,0-1.11.32,1.91,1.91,0,0,0-.71.9v3a1.85,1.85,0,0,0,.73.83,2.07,2.07,0,0,0,1.1.29,1.6,1.6,0,0,0,1.38-.71A3.54,3.54,0,0,0,126.69,122.67Z"/><path class="cls-10" d="M133,125.9a3.28,3.28,0,0,1-.14-.88,2.54,2.54,0,0,1-.94.74,2.92,2.92,0,0,1-1.21.26,2.13,2.13,0,0,1-1.48-.51,1.65,1.65,0,0,1-.56-1.29,1.67,1.67,0,0,1,.77-1.46,3.68,3.68,0,0,1,2.14-.54h1.27v-.72a1.37,1.37,0,0,0-.41-1.07,1.75,1.75,0,0,0-1.23-.39,1.92,1.92,0,0,0-1.21.37,1.11,1.11,0,0,0-.48.9h-.7a1.62,1.62,0,0,1,.7-1.31,2.71,2.71,0,0,1,1.73-.55,2.43,2.43,0,0,1,1.67.53,1.88,1.88,0,0,1,.63,1.48v3a3.63,3.63,0,0,0,.2,1.37v.07Zm-2.21-.5a2.33,2.33,0,0,0,1.26-.34,2,2,0,0,0,.8-.91v-1.39h-1.25a3,3,0,0,0-1.64.38,1.19,1.19,0,0,0-.2,1.91A1.53,1.53,0,0,0,130.74,125.4Z"/><path class="cls-10" d="M137.71,125.43a1.84,1.84,0,0,0,1.23-.42,1.45,1.45,0,0,0,.54-1.06h.67a2,2,0,0,1-.36,1,2.25,2.25,0,0,1-.89.75,2.66,2.66,0,0,1-1.19.27,2.42,2.42,0,0,1-2-.87,3.48,3.48,0,0,1-.73-2.33v-.21a3.93,3.93,0,0,1,.33-1.66,2.45,2.45,0,0,1,.94-1.11,2.57,2.57,0,0,1,1.43-.39,2.43,2.43,0,0,1,1.72.62,2.25,2.25,0,0,1,.72,1.63h-.67a1.71,1.71,0,0,0-.54-1.2,1.89,1.89,0,0,0-2.7.23,3.11,3.11,0,0,0-.53,1.92v.21a3.05,3.05,0,0,0,.53,1.89A1.75,1.75,0,0,0,137.71,125.43Z"/><path class="cls-10" d="M143.06,122.71l-.8.77v2.42h-.71v-9h.71v5.76l.66-.71,2.42-2.39h.89l-2.69,2.67,2.92,3.67h-.84Z"/><path class="cls-10" d="M151.43,125.9a3.35,3.35,0,0,1-.13-.88,2.54,2.54,0,0,1-.94.74,3,3,0,0,1-1.21.26,2.11,2.11,0,0,1-1.48-.51,1.66,1.66,0,0,1-.57-1.29,1.69,1.69,0,0,1,.77-1.46,3.72,3.72,0,0,1,2.15-.54h1.27v-.72a1.38,1.38,0,0,0-.42-1.07,1.72,1.72,0,0,0-1.22-.39,1.9,1.9,0,0,0-1.21.37,1.11,1.11,0,0,0-.48.9h-.71A1.63,1.63,0,0,1,148,120a2.69,2.69,0,0,1,1.73-.55,2.44,2.44,0,0,1,1.67.53,1.88,1.88,0,0,1,.63,1.48v3a3.66,3.66,0,0,0,.19,1.37v.07Zm-2.2-.5a2.33,2.33,0,0,0,1.26-.34,2.07,2.07,0,0,0,.8-.91v-1.39H150a3,3,0,0,0-1.64.38,1.18,1.18,0,0,0-.2,1.91A1.51,1.51,0,0,0,149.23,125.4Z"/><path class="cls-10" d="M153.58,122.67a3.79,3.79,0,0,1,.66-2.35,2.11,2.11,0,0,1,1.79-.87,2.19,2.19,0,0,1,2,1l0-.92h.66v6.21a2.66,2.66,0,0,1-.69,1.94,2.46,2.46,0,0,1-1.86.72,2.78,2.78,0,0,1-1.26-.3,2.48,2.48,0,0,1-.95-.79l.4-.42a2.21,2.21,0,0,0,1.77.92,1.83,1.83,0,0,0,1.37-.52,2.16,2.16,0,0,0,.51-1.44v-.8a2.27,2.27,0,0,1-2,.94,2.12,2.12,0,0,1-1.77-.88,3.87,3.87,0,0,1-.66-2.37Zm.71.13a3.33,3.33,0,0,0,.48,1.91,1.57,1.57,0,0,0,1.37.7,1.88,1.88,0,0,0,1.84-1.16v-3a2.11,2.11,0,0,0-.71-.93,1.94,1.94,0,0,0-1.12-.32,1.59,1.59,0,0,0-1.37.7A3.5,3.5,0,0,0,154.29,122.8Z"/><path class="cls-10" d="M163,126a2.69,2.69,0,0,1-1.46-.4,2.61,2.61,0,0,1-1-1.11,3.49,3.49,0,0,1-.36-1.6v-.25a3.76,3.76,0,0,1,.35-1.64,2.89,2.89,0,0,1,1-1.16,2.42,2.42,0,0,1,1.37-.41,2.3,2.3,0,0,1,1.83.78,3.23,3.23,0,0,1,.68,2.16v.39h-4.53v.13a2.68,2.68,0,0,0,.62,1.8,2,2,0,0,0,1.56.72,2.25,2.25,0,0,0,1-.21,2.06,2.06,0,0,0,.78-.65l.44.33A2.54,2.54,0,0,1,163,126Zm-.13-6a1.76,1.76,0,0,0-1.33.58,2.72,2.72,0,0,0-.66,1.56h3.8v-.07a2.32,2.32,0,0,0-.52-1.49A1.61,1.61,0,0,0,162.84,120Z"/><path class="cls-10" d="M170.13,125.9v-5.76h-1v-.58h1v-.77a2.1,2.1,0,0,1,.5-1.49,1.8,1.8,0,0,1,1.38-.52,2.5,2.5,0,0,1,.74.1l-.05.58a2.56,2.56,0,0,0-.64-.07,1.16,1.16,0,0,0-.9.36,1.51,1.51,0,0,0-.32,1v.78h1.51v.58h-1.51v5.76Z"/><path class="cls-10" d="M173.22,122.64a3.7,3.7,0,0,1,.35-1.65,2.64,2.64,0,0,1,2.47-1.54,2.61,2.61,0,0,1,2.05.88,3.4,3.4,0,0,1,.79,2.36v.14a3.71,3.71,0,0,1-.36,1.66,2.57,2.57,0,0,1-1,1.13,2.7,2.7,0,0,1-1.47.4,2.63,2.63,0,0,1-2.05-.89,3.42,3.42,0,0,1-.78-2.35Zm.7.19a2.91,2.91,0,0,0,.59,1.87,2,2,0,0,0,3.08,0,3,3,0,0,0,.59-1.93v-.13a3.19,3.19,0,0,0-.27-1.33,2.16,2.16,0,0,0-.76-.94,2,2,0,0,0-2.64.41,3,3,0,0,0-.59,1.92Z"/><path class="cls-10" d="M183.25,120.16a2.29,2.29,0,0,0-.47,0,1.67,1.67,0,0,0-1.11.37,2,2,0,0,0-.65,1.06v4.35h-.7v-6.34H181v1a1.86,1.86,0,0,1,1.79-1.12,1.17,1.17,0,0,1,.46.07Z"/><path class="cls-10" d="M191.28,125.9a3.35,3.35,0,0,1-.13-.88,2.54,2.54,0,0,1-.94.74A3,3,0,0,1,189,126a2.11,2.11,0,0,1-1.48-.51,1.66,1.66,0,0,1-.57-1.29,1.69,1.69,0,0,1,.77-1.46,3.72,3.72,0,0,1,2.15-.54h1.27v-.72a1.38,1.38,0,0,0-.42-1.07,1.72,1.72,0,0,0-1.22-.39,1.9,1.9,0,0,0-1.21.37,1.11,1.11,0,0,0-.48.9h-.71a1.63,1.63,0,0,1,.71-1.31,2.69,2.69,0,0,1,1.73-.55,2.44,2.44,0,0,1,1.67.53,1.88,1.88,0,0,1,.63,1.48v3a3.66,3.66,0,0,0,.19,1.37v.07Zm-2.2-.5a2.28,2.28,0,0,0,1.25-.34,2,2,0,0,0,.81-.91v-1.39h-1.25a3,3,0,0,0-1.64.38,1.18,1.18,0,0,0-.2,1.91A1.51,1.51,0,0,0,189.08,125.4Z"/><path class="cls-10" d="M197.5,124.29a1,1,0,0,0-.42-.84,3.2,3.2,0,0,0-1.26-.49,6,6,0,0,1-1.31-.41,1.73,1.73,0,0,1-.69-.57,1.4,1.4,0,0,1-.22-.81,1.5,1.5,0,0,1,.62-1.24,3,3,0,0,1,3.31,0,1.68,1.68,0,0,1,.64,1.37h-.7a1.16,1.16,0,0,0-.47-.93,2.09,2.09,0,0,0-2.28-.06,1,1,0,0,0-.42.8.88.88,0,0,0,.35.74,3.63,3.63,0,0,0,1.27.47,5.85,5.85,0,0,1,1.38.47,1.67,1.67,0,0,1,.68.59,1.51,1.51,0,0,1,.23.84,1.53,1.53,0,0,1-.65,1.28,2.77,2.77,0,0,1-1.69.48,2.84,2.84,0,0,1-1.8-.54,1.64,1.64,0,0,1-.69-1.35h.71a1.2,1.2,0,0,0,.52,1,2.09,2.09,0,0,0,1.26.35,2,2,0,0,0,1.18-.32A1,1,0,0,0,197.5,124.29Z"/><path class="cls-10" d="M200.87,117.94v1.62h1.32v.58h-1.32v4.23a1.36,1.36,0,0,0,.19.78.75.75,0,0,0,.64.26,4.21,4.21,0,0,0,.57-.06l0,.57a2.23,2.23,0,0,1-.75.1,1.25,1.25,0,0,1-1.05-.42,2,2,0,0,1-.33-1.23v-4.23H199v-.58h1.17v-1.62Z"/><path class="cls-10" d="M206.57,120.16a2.45,2.45,0,0,0-.48,0,1.71,1.71,0,0,0-1.11.37,1.92,1.92,0,0,0-.64,1.06v4.35h-.7v-6.34h.68l0,1a1.85,1.85,0,0,1,1.78-1.12,1.23,1.23,0,0,1,.47.07Z"/><path class="cls-10" d="M207.17,122.64a3.7,3.7,0,0,1,.36-1.65,2.65,2.65,0,0,1,1-1.14,2.7,2.7,0,0,1,1.47-.4,2.62,2.62,0,0,1,2.05.88,3.45,3.45,0,0,1,.78,2.36v.14a3.85,3.85,0,0,1-.35,1.66,2.63,2.63,0,0,1-1,1.13,2.7,2.7,0,0,1-1.47.4,2.63,2.63,0,0,1-2-.89,3.38,3.38,0,0,1-.79-2.35Zm.71.19a2.9,2.9,0,0,0,.58,1.87,2,2,0,0,0,3.09,0,3,3,0,0,0,.58-1.93v-.13a3.36,3.36,0,0,0-.26-1.33,2.23,2.23,0,0,0-.76-.94A1.93,1.93,0,0,0,210,120a1.87,1.87,0,0,0-1.53.74,2.94,2.94,0,0,0-.59,1.92Z"/><path class="cls-10" d="M215,119.56l0,1.09a2.64,2.64,0,0,1,.89-.9,2.38,2.38,0,0,1,1.18-.3,1.93,1.93,0,0,1,1.52.57,2.58,2.58,0,0,1,.5,1.72v4.16h-.7v-4.16a1.91,1.91,0,0,0-.36-1.27,1.39,1.39,0,0,0-1.13-.42,1.78,1.78,0,0,0-1.15.41,2.34,2.34,0,0,0-.74,1.1v4.34h-.7v-6.34Z"/><path class="cls-10" d="M220.48,122.64a3.7,3.7,0,0,1,.36-1.65,2.64,2.64,0,0,1,2.47-1.54,2.61,2.61,0,0,1,2.05.88,3.45,3.45,0,0,1,.78,2.36v.14a3.71,3.71,0,0,1-.35,1.66,2.63,2.63,0,0,1-1,1.13,2.7,2.7,0,0,1-1.47.4,2.63,2.63,0,0,1-2-.89,3.42,3.42,0,0,1-.79-2.35Zm.71.19a2.85,2.85,0,0,0,.59,1.87,2,2,0,0,0,3.08,0,3,3,0,0,0,.59-1.93v-.13a3.19,3.19,0,0,0-.27-1.33,2.16,2.16,0,0,0-.76-.94,1.91,1.91,0,0,0-1.11-.33,1.87,1.87,0,0,0-1.53.74,2.94,2.94,0,0,0-.59,1.92Z"/><path class="cls-10" d="M228.23,119.56l0,1a2.41,2.41,0,0,1,.88-.86,2.44,2.44,0,0,1,1.17-.28,1.79,1.79,0,0,1,1.91,1.23,2.44,2.44,0,0,1,.91-.92,2.52,2.52,0,0,1,1.25-.31c1.36,0,2,.74,2.08,2.22v4.23h-.7v-4.18a2,2,0,0,0-.37-1.26,1.5,1.5,0,0,0-1.17-.41,1.92,1.92,0,0,0-1.28.49,1.74,1.74,0,0,0-.58,1.17v4.19h-.7v-4.23a1.75,1.75,0,0,0-.39-1.21,1.52,1.52,0,0,0-1.16-.41,1.8,1.8,0,0,0-1.14.38,2.25,2.25,0,0,0-.7,1.12v4.35h-.7v-6.34Z"/><path class="cls-10" d="M240.24,124.89l1.85-5.33h.75l-2.7,7.42-.14.33a1.71,1.71,0,0,1-1.62,1.15,1.75,1.75,0,0,1-.53-.08v-.58l.36,0a1.3,1.3,0,0,0,.84-.26,2,2,0,0,0,.54-.87l.31-.86-2.39-6.29h.77Z"/><path class="cls-10" d="M249.3,126a2.69,2.69,0,0,1-1.46-.4,2.61,2.61,0,0,1-1-1.11,3.49,3.49,0,0,1-.36-1.6v-.25a3.76,3.76,0,0,1,.35-1.64,2.89,2.89,0,0,1,1-1.16,2.42,2.42,0,0,1,1.37-.41,2.3,2.3,0,0,1,1.83.78,3.23,3.23,0,0,1,.68,2.16v.39h-4.52v.13a2.67,2.67,0,0,0,.61,1.8,2,2,0,0,0,1.56.72,2.19,2.19,0,0,0,1-.21,2.16,2.16,0,0,0,.79-.65l.43.33A2.54,2.54,0,0,1,249.3,126Zm-.13-6a1.76,1.76,0,0,0-1.33.58,2.72,2.72,0,0,0-.66,1.56H251v-.07a2.32,2.32,0,0,0-.52-1.49A1.61,1.61,0,0,0,249.17,120Z"/><path class="cls-10" d="M252.76,122.67a3.83,3.83,0,0,1,.66-2.35,2.13,2.13,0,0,1,1.79-.87,2.19,2.19,0,0,1,2,1V116.9h.7v9h-.66l0-.84a2.27,2.27,0,0,1-2,1,2.12,2.12,0,0,1-1.77-.88,3.89,3.89,0,0,1-.67-2.38Zm.71.13a3.26,3.26,0,0,0,.49,1.91,1.56,1.56,0,0,0,1.37.7,1.89,1.89,0,0,0,1.84-1.14v-3a1.88,1.88,0,0,0-1.83-1.24,1.61,1.61,0,0,0-1.38.7A3.58,3.58,0,0,0,253.47,122.8Z"/><path class="cls-10" d="M263.79,125.1a2.28,2.28,0,0,1-2,.92,2,2,0,0,1-1.54-.59,2.58,2.58,0,0,1-.54-1.74v-4.13h.7v4c0,1.21.49,1.81,1.46,1.81a1.8,1.8,0,0,0,1.93-1.26v-4.59h.7v6.34h-.68Z"/><path class="cls-10" d="M268.65,125.43a1.84,1.84,0,0,0,1.23-.42,1.44,1.44,0,0,0,.53-1.06h.68a1.94,1.94,0,0,1-.37,1,2.25,2.25,0,0,1-.89.75,2.62,2.62,0,0,1-1.18.27,2.46,2.46,0,0,1-2-.87,3.48,3.48,0,0,1-.73-2.33v-.21a3.93,3.93,0,0,1,.33-1.66,2.51,2.51,0,0,1,.94-1.11,2.62,2.62,0,0,1,1.43-.39,2.41,2.41,0,0,1,1.72.62,2.3,2.3,0,0,1,.73,1.63h-.68a1.74,1.74,0,0,0-.53-1.2,1.78,1.78,0,0,0-1.24-.46,1.74,1.74,0,0,0-1.47.69,3.11,3.11,0,0,0-.53,1.92v.21a3.05,3.05,0,0,0,.53,1.89A1.77,1.77,0,0,0,268.65,125.43Z"/><path class="cls-10" d="M276.49,125.9a3.28,3.28,0,0,1-.14-.88,2.46,2.46,0,0,1-.94.74,2.92,2.92,0,0,1-1.21.26,2.13,2.13,0,0,1-1.48-.51,1.77,1.77,0,0,1,.21-2.75,3.69,3.69,0,0,1,2.15-.54h1.27v-.72a1.38,1.38,0,0,0-.42-1.07,1.74,1.74,0,0,0-1.22-.39,1.93,1.93,0,0,0-1.22.37,1.11,1.11,0,0,0-.48.9h-.7A1.62,1.62,0,0,1,273,120a2.71,2.71,0,0,1,1.73-.55,2.45,2.45,0,0,1,1.68.53,1.9,1.9,0,0,1,.62,1.48v3a3.63,3.63,0,0,0,.2,1.37v.07Zm-2.2-.5a2.32,2.32,0,0,0,1.25-.34,2,2,0,0,0,.81-.91v-1.39h-1.26a3.06,3.06,0,0,0-1.64.38,1.16,1.16,0,0,0-.59,1,1.13,1.13,0,0,0,.4.89A1.49,1.49,0,0,0,274.29,125.4Z"/><path class="cls-10" d="M280,117.94v1.62h1.32v.58H280v4.23a1.36,1.36,0,0,0,.19.78.75.75,0,0,0,.64.26,4.21,4.21,0,0,0,.57-.06l0,.57a2.23,2.23,0,0,1-.75.1,1.25,1.25,0,0,1-1.05-.42,2,2,0,0,1-.33-1.23v-4.23h-1.17v-.58h1.17v-1.62Z"/><path class="cls-10" d="M282.27,122.64a3.7,3.7,0,0,1,.35-1.65,2.64,2.64,0,0,1,2.47-1.54,2.61,2.61,0,0,1,2.05.88,3.45,3.45,0,0,1,.79,2.36v.14a3.71,3.71,0,0,1-.36,1.66,2.63,2.63,0,0,1-1,1.13,2.7,2.7,0,0,1-1.47.4,2.63,2.63,0,0,1-2.05-.89,3.42,3.42,0,0,1-.78-2.35Zm.7.19a2.91,2.91,0,0,0,.59,1.87,2,2,0,0,0,3.08,0,3,3,0,0,0,.59-1.93v-.13a3.19,3.19,0,0,0-.27-1.33,2.16,2.16,0,0,0-.76-.94,1.91,1.91,0,0,0-1.11-.33,1.88,1.88,0,0,0-1.53.74,3,3,0,0,0-.59,1.92Z"/><path class="cls-10" d="M292.3,120.16a2.35,2.35,0,0,0-.47,0,1.67,1.67,0,0,0-1.11.37,2,2,0,0,0-.65,1.06v4.35h-.7v-6.34h.69v1a1.86,1.86,0,0,1,1.79-1.12,1.17,1.17,0,0,1,.46.07Z"/><path class="cls-10" d="M297.21,124.29a1,1,0,0,0-.42-.84,3.27,3.27,0,0,0-1.26-.49,5.83,5.83,0,0,1-1.31-.41,1.77,1.77,0,0,1-.7-.57,1.4,1.4,0,0,1-.22-.81,1.51,1.51,0,0,1,.63-1.24,2.54,2.54,0,0,1,1.6-.48,2.58,2.58,0,0,1,1.7.52,1.69,1.69,0,0,1,.65,1.37h-.71a1.15,1.15,0,0,0-.46-.93,2.1,2.1,0,0,0-2.29-.06,1,1,0,0,0-.42.8.88.88,0,0,0,.35.74,3.71,3.71,0,0,0,1.27.47,5.69,5.69,0,0,1,1.38.47,1.77,1.77,0,0,1,.69.59,1.5,1.5,0,0,1,.22.84,1.53,1.53,0,0,1-.65,1.28,2.75,2.75,0,0,1-1.69.48,2.81,2.81,0,0,1-1.79-.54,1.64,1.64,0,0,1-.69-1.35h.7a1.2,1.2,0,0,0,.52,1,2.11,2.11,0,0,0,1.26.35,2,2,0,0,0,1.19-.32A1,1,0,0,0,297.21,124.29Z"/></g></svg>